<?xml version="1.0" encoding="UTF-8"?><svg id="Layer_2" xmlns="http://www.w3.org/2000/svg" viewBox="0 0 145.3 1.7"><defs><style>.cls-1{fill:#ff20ff;stroke-width:0px;}</style></defs><g id="Layer_1-2"><path class="cls-1" d="M145.3,1.2c0,0,0-.1-.2-.1v.2c-.1,0,.2,0,.2,0Z"/><path class="cls-1" d="M143.8.9c-.2,0-.5.2-.4.4.2-.2.3,0,.6-.3.2,0,.4,0,.3.1,0,0,.3,0,.4,0-.3-.1-.6-.1-1,0,0,0,0,0,0-.1Z"/><path class="cls-1" d="M123.2.6h.1s0,0-.1,0Z"/><path class="cls-1" d="M110.5.5c0,0,.1,0,.1,0,0,0-.2,0-.1,0Z"/><path class="cls-1" d="M108.3.3s0,0,.1,0c0,0,0,0-.1,0Z"/><path class="cls-1" d="M123.2.6h-.3s.2,0,.3,0Z"/><path class="cls-1" d="M141,1.3c0,0,.1,0,.2,0,0,0-.1,0-.2,0,0,0,0,0,0,0Z"/><path class="cls-1" d="M128.9.5h.1s0,0,0,0h-.2Z"/><path class="cls-1" d="M133.2.4c0,0-.1.1-.2.2,0,0,.1,0,.2-.1,0,0,0,0,0-.1Z"/><path class="cls-1" d="M140,.7h.1s0,0-.1,0Z"/><path class="cls-1" d="M125.8.4s0,0,0,0c0,0,0,0,0,0Z"/><path class="cls-1" d="M5,1.6s0,0,0,0c0,0,0,0,0,0Z"/><path class="cls-1" d="M0,.8h0s0,0,0,0H0Z"/><path class="cls-1" d="M104.3.1s0,0,0,0c.1,0,0,0,0,0Z"/><path class="cls-1" d="M67.7.2c.4.1-.7.2,0,.3,0,0,.6-.2,0-.3Z"/><path class="cls-1" d="M140.9,1.3c0,0-.1,0-.2,0,0,0,.1,0,.2,0Z"/><path class="cls-1" d="M67.7.6h0s0,0,0,0c0,0,0,0,0,0Z"/><path class="cls-1" d="M95.1.2s0,0,0,0c0,0,0,0,0,0Z"/><path class="cls-1" d="M102,.4h-.2c0,0,.1,0,.2,0Z"/><path class="cls-1" d="M91.6.4c0,0-.1,0-.2,0,0,0,0,0,0,0,0,0,.1,0,.2,0Z"/><path class="cls-1" d="M87.9.4s0,0,0,0c0,0,0,0,.1,0h-.2Z"/><path class="cls-1" d="M16.3,1.5c0,0-.1,0-.2-.1,0,.1-.5.1.2.1Z"/><path class="cls-1" d="M141,1.2s0,0-.1,0c0,0,0,0,.1,0,0,0,0,0,0,0Z"/><path class="cls-1" d="M91.4,1.6h-.6c.2,0,.4,0,.6,0Z"/><path class="cls-1" d="M42.8,1.5h-.1c0,0,0,0,.1,0Z"/><path class="cls-1" d="M89.1,1.6c-.1,0-.2,0-.3-.1,0,0,0,0,0,0h.4Z"/><path class="cls-1" d="M16.1,1.3s0,0,0,0c0,0,0,0,0,0Z"/><path class="cls-1" d="M12.2,1.7c.6,0,.3-.2.4-.3.7,0,.3.1.5.2.4,0,.7-.2,1-.2,0,0,0,0,0,0,.4-.2,1.3,0,1.8-.2,0,0,0,0,0,0,0,0,0-.2,0-.3.3,0,.5-.1.6,0-.2,0-.2,0-.2,0h.3c.2.1-.4,0-.4.1.5,0,1.1-.2,1.5-.2,0,.2-.9,0-.4.2h-.6c.5.2-.4,0,0,.2.8,0,.9,0,1.7,0,.2-.1,0-.1.1-.2,1.1-.2.9.5,1.7.2.2-.1.3-.3.9-.2l-.2.2c.8,0,.4-.3,1.3-.2-.1,0-.6,0-.5,0,.5.2.4-.1.8-.1v.2c.9,0,1.8-.2,2.7-.2,0,0-.2.1,0,.2,1.2,0,2.5,0,3.6.1l.4-.2c0,0,.2,0,0,.1.4,0,0,0,.2-.2.2,0,.3,0,.2.1.8-.1,2.2-.3,3-.1h-.2c.6.1.7-.3,1.3-.1h-.1c1.4,0,2.9,0,3.9.2.2-.2,1.3,0,1.4-.2.8.2.6.2,1.6.3.3,0,.4-.2.8-.2v.2s.5-.2.5-.2l.3.2h.3c-.1,0-.3-.1-.3-.2.5,0,1.3.1,1.3.2h1.3c0,0-.2,0-.4,0,.7-.2.1.2.7,0,0,0,0,0,0-.1.3,0,1,0,1.5,0h0c.9.1,2,0,3,0-.4,0-.3-.2,0-.3v.2c.3-.1-.2,0,.2-.2.4,0,.3.2,0,.3h.5s0,0-.1,0c.2-.1.8.2,1.1,0h0c1,0,1.5,0,2.4,0,0-.1.3-.1.6-.2.6,0,1.3.2,2.1.2.5,0,.2-.1.4-.2,0,.1.8.1.4.2.9,0,1.2,0,2.3-.1-.1,0-.3,0-.2-.1.2,0,.5,0,.4.1h0c1.3-.2,3,.4,4,.1h0s1.1-.1,1.1-.1c.5,0-.3.1,0,.2,1.1-.2,1.8,0,2.7-.1.7.4,2.6,0,3.6.2h0c.3-.2.3,0,.5,0,0,0-.3,0-.1-.1,2.1-.1,4.4.1,6.6.2.8,0,.5-.5,1.5-.3l-.3.2c1.6-.2,3.3,0,4.9-.2,0,0,0,0-.3,0,.3.1,1.2,0,1.2,0,.2,0,0,0,.2.1.3,0,.8-.2,1,0,0,0,0,0-.2,0,.2,0,1,0,.8-.1.6,0,1.1,0,1.6,0,.3-.2,1,0,1.1-.2,0,.2,1,.2,1.4,0-.1,0,.3,0,.2.2.4,0,.8,0,.8-.2.8.3,1.6-.2,2,.1,1.3-.1,2.5-.2,3.6-.3,0,.2-1.3,0-1.2.3,1.1,0,1.7-.3,2.8-.2.3,0-.2.1-.3.1,1.1,0,2.1,0,3.1-.1,0,0-.1,0-.2,0,.2,0,.4,0,.4,0h-.2c-.3-.1.8-.3.8-.4-.3.3,1,0,.4.5.1,0,.3,0,.3-.1.2,0,.2,0,0,.1.7,0,.4-.2,1.1-.2,0,0-.1,0-.2.1.3-.1.6-.2,1.2-.2,0,0,0,0-.1,0,.9,0,1.5-.3,2.5-.2-.3.2.3,0,.4.3h.5c0,0-.2-.2-.2-.2.5,0,.9-.1,1.3,0h-.3c0,0,.9,0,.9,0h-.5c.5-.2,0-.3.6-.3-.1,0,.5,0,.7.1,0,0,0,0,0,0,.2,0,.5-.1.8,0,0,0,0,.2,0,.3.2-.2,1.1,0,1.4-.2,0,0-.1.1,0,.2h.2c.2,0,.2,0,.2,0,.6,0-.2-.3.6-.1,0,0,0,0-.2,0,.8,0,1.5,0,2.2,0,.2.2-.6,0-.4.2,1,0,2.1-.2,3.1-.2h-.2c.1-.3.7.1,1.2,0-.1,0-.2.2-.1.1.7,0,1.4,0,2.4-.2h-.1c.4.1,1.1.1,1.5.1.1,0,.4,0,.2-.2,1.3.4,2.5-.2,3.7.1-.1,0-.3,0-.2,0h1c0-.2-.1-.1-.3-.2.1,0,.4-.1.7-.1-.5,0,0,.2.2.3,0,0,0,0,0-.1.5.2,0-.2.8,0h0c.3,0,.5,0,.8,0,.1.1-.3,0-.3.2.4,0,.8-.3,1.2-.1-.2,0-.4,0-.6,0,.4.2.4.1.7.2h0s.7,0,.7,0h-.2c.5-.4,1-.1,1.7-.4-.7.2-.1.1-.2.3.2,0,.4,0,.4.1.3-.1.5.1,1,0,0,0,.3,0,.3.1.4,0,0,0,0-.2.7-.2,1.5.2,2.5,0,.8,0,1-.3,1.7-.4.3,0-.2.2-.2.2.4,0,.7,0,1.1,0,0,0,0,0,.1.1.3,0,.2-.2.6-.1,0,0-.2.1-.3.2.4,0,.7-.1,1.1-.2,0,0-.2.1-.4.2.4,0,1.1,0,1.2-.2h-.3c.2,0,0,0,0,0-.4.1-.5,0-.5-.1h.3c-.3-.3-1.1,0-1.6,0l.2-.2-.6.2c-.1,0-.2-.2,0-.2-.4-.1-.3,0-.7,0,0,0,0,0,0,0h-.4c0,0,0,0,.2,0-.7-.1-1.1.2-1.3,0h0c-.9,0,0,.1-.8.3l-.5-.4v.2c-.2,0-.4,0-.3,0-.4.1,0,0-.1.2-.5-.1-1.3,0-1.4-.2-.2.1.4,0,0,.2-.1-.3-.6,0-1,0,.1-.1.5,0,.1-.2-.3.2-.8,0-1.2,0,0,.2-.8,0-1.4.1,0,0-1.1-.1-1.7-.2h0c-.1.2-.7.1-1.1.2,0-.1,0-.2.3-.2h-.4c0,0-.2,0-.5.1h0c-.5-.1-1.1,0-1.7,0,0,.1.5.4-.2.5,0,0,0-.2.1-.2,0,0-.2,0-.3,0h.3c-.3-.2-.2,0-.4,0,0-.1-.2,0-.1-.2,0,0,.2,0,.3,0-.3,0-.6,0-.7-.2,0,0,0,.1-.2.2-.5,0-.2-.1-.5-.2-.1,0-.5,0-.5.2-.2,0-.2,0-.2-.1-.3,0-1.3,0-1,.2h0s0,0,0,0h0,0c-.9.2-1.9,0-2.8,0h0c-.5,0-1.2,0-1.6,0-.2,0-.4,0-.3-.2-.4,0-.5,0-1,0,.4,0-.1,0,.4,0-.5,0-.6-.1-1.2,0,.2-.1-.4-.2-.6-.1h.4c-.3.1-.5.1-.8,0v-.2c-.9-.2-1.8.4-2.6,0-.3.1.6,0,.3.2-.5,0-1-.3-1.2-.3-.7,0-.6.3-1.3.2,0,0,.2.2-.4.3-.5,0-.6-.3-.3-.3.1,0,.2,0,.2,0,.2,0,.4,0,.2-.1h0c-.2,0-.9,0-.8,0-.4,0-.2.1.1.1-.6,0-1,0-1.7,0,.1,0,.2.1,0,.1-1,0-.4.1-1.1.1-.4,0,.1-.2-.5-.1-.4,0,0-.2,0-.2-.6.1-1.1,0-1.5-.1h.3c-.2,0-.3,0-.5,0h.2c-.2.1-.3.1-.3,0-.2,0,.1.2-.2.3-.2,0-.8,0-.8,0,.8,0,0-.2.6-.2-.1,0-.3,0-.5,0,0,0,0,0,0,0-.7-.1-.3.2-1.1.2,0,0-.2-.2-.3-.2.3,0,.1.2-.1.2-.5,0-.5,0-.8,0h.3c0,.1-.3.1-.7.1,0,0,.3,0,.2,0-.4.2-.9-.2-1.4,0-.2,0,0-.2-.2-.2-.6.1-.6-.1-1.3,0,.2.1.2,0-.2.2h1c0,0-.7,0-.7,0,.3,0,.7,0,.8,0-.3.1-.3,0-.1.2-.4-.2-.8.1-1.3,0v-.3c-.7-.1-1.3.2-2.3,0h.3c-.1.2-.6,0-.9.1,0-.1-.2-.1-.3-.2,0,0-.7,0-.8.2h-.4c-.8-.2-.9.2-1.6.1.2-.1-.1-.2.4-.3-.2,0-.5,0-.5,0-.1,0-.7.1-.9,0-.1,0-.1.2-.4.1,0,0,0,0,0,0,0,0-.4,0-.2.2-.8-.3-2.1,0-2.8-.3-.5,0-1.2,0-1.7,0,0,0,0,0,0,0-.7,0-.4.3-1.2.2-.4-.2.4,0,.2-.2-.1-.3-.9,0-1.5-.2h.1c-.4-.1-1,.1-1.6,0,0,0,0,0,0,0-.4.2-1.3.2-1.9.3.2-.1.3,0,.2-.2-.3,0,0,.2-.5.3-.2,0-.6-.1-.6-.3h.5c-.3-.2-.7,0-1,0h0c-.8,0-.8.2-1.7.1h0c-.5.3-.4,0-.9,0v-.2c-.5,0-1.2.2-1.8.2.3-.2,1-.2,1.4-.3-.3,0-1.1,0-1.2.1.1,0,.3,0,.4,0-.4.2-.9.2-1.5.2.1-.4-1.6-.1-2.1-.4-1.1.2-2.2,0-3.5,0,.5.3-.4,0-.3.3-.3,0-.4,0-.4,0l-.9-.2c-.2,0,.3,0,.3-.1-.7,0-.3-.1-.7-.2,0,.1-.2.2-.6.1h.5c-.9.3-.8-.1-1.7,0h.3c-.5,0-1.7-.1-2.2.2,0,0-.2-.1,0-.1-1.1,0-2.5.3-3.4.1h0c-.2,0-.4,0-.6,0,0,0,0,0,0,0-.1,0-.6.1-.8,0h.2c-1.1-.2-1.7.1-2.6.2,0-.2-.9-.3-1.3-.3h0c-1.3,0-2.2.2-3.4.3-.7-.3-2.5-.1-3.7-.2.2,0,0,.2-.2.2-.3,0-.8.2-.7,0h0c-.2-.2-.8-.2-1.2-.2v.3c-1.2-.4-3.1.1-3.8-.2-.3,0-.6,0-.9.1v-.2c-.8,0-1.2,0-2.1,0h.2c-.5-.1-.7.3-1.2.3l-.2-.2c-.9,0-1.9-.2-2.8,0,0,0,0,0,.2-.1-.4,0-1.7-.2-1.6.2,0-.2-1,0-1.5,0h0c-.4,0-.4,0-1,.1-.1,0-.1-.1,0,0-.5,0-.4.1-.9,0h.2c-.5-.1-.5,0-.7,0-.3,0-.9,0-1-.2,0,0-.3.2-.6.2,0,0,0,0,.1,0-.8-.1-1.2.2-1.8,0,0,0,0,0,0,0,.6,0,1.2,0,1.1,0,0-.1-.5-.2-.1-.3-.4.1-1.1.3-1.7.3,0,0,0,0,0,0h0c-.1,0-.2,0-.3,0-.2,0-.3,0-.4,0,0-.1-.6,0-.9,0,0,.1-.3.1,0,.2,0,0,0,0,.2,0,0,0,0,0,.1,0,0,0,0,0,0,0,.2,0,.4,0,.7,0-.2,0-.4.1-.7,0-.1,0-.3.2-.4.2-.4-.2-1-.3-1.1-.4-.8,0-1.9,0-2.4.3-.2,0-.3,0-.3-.1.1,0,.3,0,.4,0-.5,0-1.3,0-1.5.2-.6,0,.3-.2-.5-.1h.1c-1.5-.4-2.5.4-4.2,0,.1,0,.2,0,.2,0-2-.2-4,.2-6-.1-.5,0-.6,0-.9.2v-.2c-.1,0-.7.2-.7.2-.8.1-1.4-.4-2.4-.1h.1c-.4,0-1.2.2-1.1,0,0,0-.1.1-.3,0h0c0,0-.9,0-.9,0-.7,0,.1-.3-.9-.3C.6.4-.1.6,0,.6c.2,0,.4,0,.4.1H0c0,.3-.3.5.5.7l.6-.2h.2c0,.1-.5.1-.5.1.3.1.5,0,.7,0,0,0,.1.1.2.1l.6-.2c0,0-.3.2.1.2.3-.1-.3-.2.2-.3.3.1.2.2.5.1,0,0,0,.1-.2.1.3,0,.8,0,.9-.2.3.1,1,0,1,.2,0,0,.5-.2.8-.2-.5.3,1,0,.9.3.4-.3,1.3-.1,2-.3,0,0-.1,0-.2,0,.4,0,.5,0,.7.1,0-.2.6-.3.9-.4.5.2-.3.2-.1.4,0-.2.8-.2.6-.3.3.1.3,0,.5.2,0-.3.3,0,.6-.2.5.1.1.2.7.2.3,0-.2.2-.2.2ZM25.3,1.3h0c-.1,0-.2,0-.3,0,0,0,.1,0,.3,0ZM26.4,1.3c-.1,0-.3,0-.5,0,0,0,0-.1.1-.1,0,0,.2,0,.4.1ZM24.1.2c.2,0,.2,0,.3,0,0,0-.2,0-.3,0,0,0,0,0,0,0,0,0,0,0,0,0Z"/><path class="cls-1" d="M23.8.4s0,0,0,0c0,0,0,0,.1,0,0,0,0,0,0,0,0,0,0,0,0,0Z"/><path class="cls-1" d="M123.4.6h0s0,0,0,0c0,0,0,0,0,0Z"/><polygon class="cls-1" points="41.6 1.5 41.6 1.5 41.5 1.5 41.6 1.5"/><path class="cls-1" d="M129.5,1.1s0,0,0,0c0,0,0,0,0,0Z"/><path class="cls-1" d="M132.1,1.2h.4c-.2,0-.3,0-.4,0Z"/><path class="cls-1" d="M134.1,1.3s0,0,0,0c0,0,0,0,0,0h0Z"/><path class="cls-1" d="M102.1,1.4s0,0,0,0c-.2,0,0,0,0,0Z"/><path class="cls-1" d="M111.6,1.1c-.1,0-.2,0-.3,0,.2,0,.3,0,.3,0Z"/><path class="cls-1" d="M91.5,1.6s0,0,0,0c0,0,0,0,0,0h0Z"/><path class="cls-1" d="M110.9,1.1c.2,0,.3,0,.4,0-.1,0-.3,0-.4,0Z"/><path class="cls-1" d="M142.8,1.3h0s0,0,0,0h-.1Z"/><path class="cls-1" d="M142.9,1.3h.1s0,0-.1,0Z"/><path class="cls-1" d="M143.2,1.2h-.2c0,0,.2,0,.2,0Z"/><path class="cls-1" d="M140.1,1.3h0s0,0,0,0Z"/><path class="cls-1" d="M139.3,1.3c.2,0,.5.1.8,0h0c-.1,0-.6-.2-.8,0Z"/><path class="cls-1" d="M135.9.6h.7c-.1,0-.3,0,0-.1-.9-.2.2.1-.7.1Z"/><path class="cls-1" d="M133.8.5c.4,0,0,0,0-.1-.2,0-.3,0,0,.1Z"/><path class="cls-1" d="M118.7.5h0c-.3-.1,0,0,0,0Z"/><polygon class="cls-1" points="115.8 1.2 116 1.3 116.2 1.2 115.8 1.2"/><polygon class="cls-1" points="114 .3 114.2 .2 113.7 .3 114 .3"/><path class="cls-1" d="M88.5.3v.2c.3,0,.3-.2,0-.2Z"/><path class="cls-1" d="M77.5.5c-.1,0-.4-.1-.6,0,.2,0,.5,0,.6,0Z"/><polygon class="cls-1" points="44.5 .2 44.7 .1 44.3 .2 44.5 .2"/></g></svg>