<?xml version="1.0" encoding="UTF-8"?><svg id="Layer_2" xmlns="http://www.w3.org/2000/svg" viewBox="0 0 285.6 3.2"><defs><style>.cls-1{fill:#ff20ff;stroke-width:0px;}</style></defs><g id="Layer_1-2"><path class="cls-1" d="M285.5,2.3c.1,0,0-.3-.3-.2l-.3.3h.6Z"/><path class="cls-1" d="M282.7,1.7c-.5.2-1,.4-.7.7.5-.3.6-.2,1.1-.6.4,0,.7.1.7.2.1,0,.6,0,.9-.1-.5-.3-1.2-.3-1.9,0-.2,0,0-.2,0-.2Z"/><path class="cls-1" d="M242.3,1.2h.3c0,0-.2,0-.3,0Z"/><path class="cls-1" d="M217.2,1c.2,0,.3,0,.3,0-.2,0-.3,0-.3,0Z"/><path class="cls-1" d="M212.9.6c0,0,.2,0,.3,0,0,0-.2,0-.3,0Z"/><path class="cls-1" d="M242.3,1.2h-.7s.3,0,.7,0Z"/><path class="cls-1" d="M277.2,2.5c.1,0,.3,0,.4,0-.1,0-.2,0-.3,0,0,0,0,0,0,0Z"/><path class="cls-1" d="M253.3.9h.2c0,0,.1,0,.2-.1h-.4Z"/><path class="cls-1" d="M261.8.8c-.2,0-.3.3-.3.4.1-.1.3-.2.4-.2,0,0,0-.1,0-.2Z"/><path class="cls-1" d="M275.3,1.3h.2c0,0-.2,0-.2,0Z"/><path class="cls-1" d="M247.2.8s0,0,0-.1c0,0,0,0,0,.1Z"/><path class="cls-1" d="M9.9,2.9s0,0,0,0c0,0,0,0,0,0Z"/><path class="cls-1" d="M0,1.5h.1c0,0,0-.1,0-.2l-.2.2Z"/><path class="cls-1" d="M205.1.2s0,0,0,0c.2,0,0,0,0,0Z"/><path class="cls-1" d="M133.1.5c.8.3-1.3.3,0,.6-.1-.1,1.1-.4,0-.6Z"/><path class="cls-1" d="M276.9,2.4c-.1,0-.2,0-.3,0,.2,0,.3,0,.3,0Z"/><path class="cls-1" d="M133,1.1h0s.1,0,.1,0c0,0,0,0-.1,0Z"/><path class="cls-1" d="M187,.4s.1,0,.2.1c0,0,0,0-.2-.1Z"/><path class="cls-1" d="M200.4.8h-.3c.1,0,.2,0,.3,0Z"/><path class="cls-1" d="M180,.8c-.2,0-.2,0-.5,0,0,0,0,0,0,0,0,0,.2,0,.4,0Z"/><path class="cls-1" d="M172.7.8s0,0,.1,0c0,0,.2,0,.2,0h-.4Z"/><path class="cls-1" d="M32,2.8c-.2,0-.3-.2-.3-.3.1.2-1,.3.3.3Z"/><path class="cls-1" d="M277.2,2.3c0,0-.1.1-.2.1,0,0,.2,0,.2,0,0,0,0,0,0-.1Z"/><path class="cls-1" d="M179.7,3h-1.2c.3,0,.7,0,1.2,0Z"/><path class="cls-1" d="M84.1,2.8h-.3c.1,0,.2,0,.3,0Z"/><path class="cls-1" d="M175.1,3c-.2,0-.4-.2-.7-.2,0,0-.1,0-.1,0h.8Z"/><path class="cls-1" d="M31.6,2.5s0,0,0,0c0,0,0,0,0,0Z"/><path class="cls-1" d="M24,3.2c1.1,0,.5-.4.8-.6,1.3-.1.6.3,1.1.5.8,0,1.4-.4,2.1-.4,0,0,.2,0,0,.2.9-.3,2.6,0,3.6-.4,0,0,.1,0,.1,0-.2-.2-.2-.4-.2-.5.5,0,.9-.2,1.1,0-.3,0-.3,0-.5.2h.5c.5.2-.7,0-.7.3,1-.1,2.2-.4,3-.3.2.3-1.8.1-.8.4h-1.2c.9.4-.7-.2.1.4,1.6,0,1.8-.2,3.3,0,.4-.2-.1-.3.2-.5,2.2-.3,1.8.9,3.4.4.4-.2.6-.7,1.8-.4l-.4.4c1.5,0,.9-.6,2.5-.3-.3.2-1.2.1-1,.2,1,.3.7-.2,1.5-.2l.2.3c1.6,0,3.4-.3,5.2-.4,0,.1-.4.2,0,.3,2.3-.2,4.8,0,7,.2l.8-.3c.2,0,.4.1.1.2.9.1,0-.2.5-.3.5,0,.6.2.3.3,1.5-.2,4.3-.5,5.9-.2h-.3c1.2.2,1.4-.5,2.5-.2h-.2c2.7.2,5.6,0,7.7.4.4-.4,2.6.2,2.8-.4,1.5.3,1.1.4,3.2.6.6,0,.9-.4,1.6-.4v.3s1-.3,1-.3l.5.4h.7c-.3,0-.6-.2-.5-.3,1-.1,2.5.2,2.6.4l2.5-.3c0,.1-.5.2-.8.2,1.3-.3.2.3,1.4,0-.2,0,0-.2.1-.2.6.2,2,.2,3,.1l-.2.2c1.8,0,3.9-.1,5.9,0-.7,0-.6-.5,0-.5l.2.3c.4-.2-.6-.1.2-.4.8,0,.5.4,0,.5h.9c0,0-.2,0-.2.2.4-.2,1.6.3,2.2,0h0c2,0,3,0,4.6,0,0-.3.7-.2,1.2-.4,1.2,0,2.6.3,4.1.3,1-.1.3-.2.8-.4,0,.3,1.6.2.8.4,1.8,0,2.3,0,4.5-.3-.2-.1-.5-.2-.4-.2.4,0,.9.1.9.2h-.1c2.5-.4,5.8.8,7.8.2h-.1s2.1-.3,2.1-.3c1,0-.6.2.1.4,2.2-.4,3.5,0,5.4-.2,1.4.8,5.1,0,7,.4v-.2c.4-.2.5.1.9.1,0-.1-.5-.2-.2-.3,4.2-.2,8.7.3,13.1.4,1.6,0,.9-.9,2.9-.5l-.6.3c3.2-.4,6.5,0,9.7-.3-.2,0-.2.2-.5.2.7.2,2.4,0,2.5-.2.5,0,.1.2.4.3.7.1,1.7-.3,2,0,0,0-.2,0-.3,0,.4-.1,2,0,1.6-.2,1.2.1,2.2-.1,3.2,0,.6-.3,2,.1,2.2-.3,0,.5,2.1.4,2.8.2-.2.1.6.1.4.3.8,0,1.6,0,1.5-.3,1.6.5,3.1-.4,4,.3,2.5-.2,4.8-.4,7.1-.5,0,.5-2.5,0-2.4.5,2.1-.2,3.4-.6,5.5-.5.6,0-.3.2-.5.3,2.1-.2,4.2,0,6.1-.2,0,0-.2,0-.4.1.4,0,.9,0,.8-.1h-.4c-.6-.2,1.5-.6,1.6-.7-.6.6,1.9.1.9.9.2,0,.6-.1.5-.3.4,0,.5.1.1.3,1.3-.1.9-.3,2.1-.3,0,0-.3.1-.4.3.6-.2,1.2-.4,2.3-.3,0,0,0,.1-.3.1,1.8,0,3-.5,5-.3-.6.4.7.1.8.5h1c0-.1-.4-.3-.4-.3.9,0,1.7-.3,2.5-.1l-.7.2h1.7c0,0-1-.2-1-.2.9-.2,0-.5,1.1-.4-.2,0,.9,0,1.4.2,0,0,0,0,0,0,.5-.1.9-.2,1.6-.2.2.1-.1.4,0,.5.4-.3,2.1,0,2.7-.4-.2,0-.2.3-.1.3l.4-.3c.4,0,.5.1.4.3,1.3,0-.4-.5,1.1-.3-.1,0,0,0-.3,0,1.5.1,2.9-.2,4.3,0,.4.4-1.2,0-.7.4,2,0,4.2-.5,6.1-.4h-.4c.3-.6,1.5.2,2.4,0-.2,0-.3.3-.3.2,1.3,0,2.7-.1,4.8-.3h-.3c.8.3,2.1.2,2.9.3.3-.1.7-.1.4-.3,2.6.8,5-.4,7.3.2-.3,0-.7.1-.4.1h2c-.2-.4-.3-.3-.7-.4.3-.1.8-.2,1.3-.2-.9.2,0,.4.4.5,0,0,0-.1,0-.2,1,.4.2-.5,1.6-.2h0c.5,0,1-.1,1.6,0,.2.3-.6.1-.6.3.8,0,1.6-.5,2.3-.2-.3,0-.8,0-1.2.1.8.3.9.2,1.5.3h0s1.4.1,1.4.1h-.3c1-.8,2-.2,3.4-.7-1.3.4-.2.2-.3.6.3,0,.9.2.7.3.6-.2,1.1.2,2-.2,0,0,.7,0,.5.3.8,0-.2-.2-.1-.3,1.3-.3,3,.4,4.8,0,1.6-.2,1.9-.5,3.4-.7.5.2-.4.4-.4.4.8.1,1.4.1,2.2,0-.2,0,0,.2.2.3.6,0,.4-.4,1.2-.2-.1.1-.3.3-.6.4.7,0,1.4-.3,2.2-.4.2.2-.4.3-.7.4.8,0,2.2-.2,2.4-.4h-.5c.3-.1.2.1,0,.2-.7.2-1,0-1.1-.2h.5c-.5-.6-2.1,0-3.2,0l.4-.4-1.1.3c-.2-.1-.4-.3.1-.4-.8-.2-.7.1-1.3,0,0,0,0,0,0,0h-.7c.1,0-.1-.2.3-.1-1.3-.2-2.2.3-2.7,0h.1c-1.9.1-.2.3-1.6.6l-.9-.8-.2.3c-.2,0-.6,0-.5-.2-.7.2.1.1-.3.3-.9-.3-2.5.1-2.7-.4-.3.2.9.2-.1.3-.3-.5-1.1,0-2-.2.3-.3,1.1-.1.2-.4-.5.5-1.6,0-2.3,0,0,.4-1.5.2-2.7.3,0-.1-2.2-.2-3.3-.3h0c-.2.3-1.4.2-2.2.3,0-.2.2-.3.6-.4h-.8c-.2.1-.4.2-.9.2l.2-.3c-1,0-2.1.3-3.4.1,0,.3,1.1.7-.4.9,0-.1-.1-.4.3-.4-.1,0-.4.1-.7,0l.6-.2c-.6-.1-.3.2-.8.2,0-.2-.4-.1-.3-.3.1,0,.4,0,.6,0-.5,0-1.2-.2-1.4-.3,0,.1,0,.3-.4.3-1,0-.4-.2-1-.3-.3.1-.9,0-.9.3-.3,0-.4-.1-.5-.2-.5.1-2.5,0-1.9.4h.1s0,0,0,0h0,0c-1.8.3-3.7-.2-5.4,0h0c-1,0-2.3,0-3.1.2-.3,0-.7-.2-.6-.3-.8,0-.9.2-2,0,.8-.2-.3-.2.8-.1-1,0-1.3-.2-2.4,0,.4-.3-.8-.3-1.3-.2l.7.2c-.6,0-1,0-1.5,0l.3-.3c-2.1-.4-3.8.7-5.4,0-.6.2,1.2.2.7.4-1,0-2-.5-2.3-.5-1.3-.2-1.2.5-2.6.4.2.1.3.4-.7.5-1,0-1.2-.5-.6-.6.2,0,.3,0,.3,0,.3,0,.7,0,.3-.2h-.1c-.5,0-1.8,0-1.5-.2-.7.1-.3.2.2.3-1.3-.2-2,0-3.2-.1.2,0,.4.2.2.2-1.9-.1-.8.2-2.1.3-.7-.2.3-.4-1-.3-.8-.1-.2-.3.1-.4-1.2.2-2.2-.2-2.9-.2h.6c-.4,0-.7,0-1,0l.4.2c-.4,0-.7,0-.7-.1-.4.2.3.4-.5.6-.5-.1-1.5.1-1.6-.2,1.5.1-.2-.3,1.1-.4-.2,0-.6,0-.9,0,0,0,0,0,.2,0-1.5-.3-.7.4-2.2.3.2-.2-.4-.3-.6-.3.6,0,.3.3-.3.4-1-.1-1.1.1-1.6,0h.6c-.2.2-.7.2-1.4.3,0-.1.6,0,.4-.2-.7.3-1.7-.3-2.7-.1-.5-.1,0-.3-.5-.4-1.2.2-1.3-.2-2.5,0,.4.2.4.2-.5.4l2-.2-1.3.3c.6,0,1.3-.2,1.7-.1-.6.2-.6.1-.3.3-.8-.4-1.7.2-2.6,0v-.6c-1.4-.3-2.6.3-4.4.2h.6c-.3.3-1.2.1-1.8.2,0-.2-.3-.3-.6-.4,0,.1-1.4,0-1.6.4l-.8-.3c-1.5-.1-1.7.6-3.2.5.4-.2-.2-.4.8-.5-.5,0-.9,0-.9,0-.3-.1-1.4.3-1.8,0-.2,0-.3.3-.8.3,0,0,0,0,0,0,0,0-.9.1-.4.4-1.5-.6-4.2,0-5.5-.5-1.1,0-2.4.1-3.3.1,0,0,0,0,.2,0-1.3-.2-.8.6-2.3.4-.8-.3.8-.2.3-.3-.2-.6-1.8,0-2.9-.3h.2c-.8-.3-1.9.2-3.2.2,0,0,0,0,0,0-.9.3-2.5.4-3.8.5.4-.3.6-.1.3-.4-.6,0,.2.4-.9.5-.4-.1-1.2-.3-1.3-.5h1c-.5-.4-1.3,0-1.9,0v-.2c-1.5,0-1.5.4-3.3.4h.2c-.9.5-.8-.1-1.7.2l-.3-.4c-.6,0-2.2.4-3.3.5.6-.3,1.9-.4,2.7-.6-.6,0-2.1,0-2.4.2.2,0,.6-.1.8,0-.7.3-1.7.5-3,.5.2-.8-3.2-.2-4.1-.8-2.2.3-4.3-.1-6.8,0,.9.6-.7,0-.6.6-.6,0-.8,0-.9,0l-1.8-.4c-.4-.2.6-.1.5-.3-1.3,0-.5-.3-1.4-.4.2.2-.4.3-1.2.2l1,.3c-1.8.3-1.5-.5-3.3-.2l.6-.2c-.9.1-3.4,0-4.3.5-.2,0-.4-.2,0-.3-2.2,0-4.9.5-6.6.2h.2c-.4-.1-.7.1-1.2,0,0,0,.2-.1,0-.2-.2,0-1.1.3-1.6.2l.5-.2c-2.2-.2-3.3.4-5.1.5,0-.4-1.7-.6-2.5-.7h0c-2.5-.1-4.3.3-6.6.5-1.4-.5-4.9-.2-7.2-.5.4,0,0,.3-.5.4-.5,0-1.5.3-1.4,0h.2c-.4-.4-1.5-.3-2.4-.3v.5c-2.4-.8-6.1.3-7.4-.4-.6.1-1.2.1-1.8.3v-.3c-1.5,0-2.3-.1-4.1,0l.4-.2c-1.1,0-1.3.8-2.3.8l-.3-.4c-1.9,0-3.7-.4-5.6,0,0,0,0-.2.4-.2-.9,0-3.4-.3-3.1.3,0-.4-1.9,0-2.9.1l.2-.3c-.8.4-.9.5-2.1.6-.3,0-.2-.2.1-.2-.9-.1-.7.3-1.9.1l.4-.2c-1,0-.9,0-1.4.3-.6.1-1.8,0-2-.3-.1.2-.7.4-1.2.3,0,0,.1-.2.2-.2-1.6-.2-2.4.3-3.5,0,0,0,0-.1-.2-.2,1.3,0,2.3,0,2.2,0,0-.3-1-.3-.2-.7-.8.2-2.2.6-3.2.5,0,0,0,0-.1,0h.1c-.2,0-.4,0-.6,0-.3,0-.5,0-.8,0-.1-.2-1.2-.1-1.7-.1,0,.3-.6.2,0,.5,0,0,0,0,.4,0,0,0,.2,0,.2,0,0,0,0,0,0,0,.3,0,.8,0,1.3,0-.4.1-.8.3-1.4.1-.3.2-.6.4-.7.5-.7-.4-2.1-.6-2.2-.8-1.6.2-3.7.1-4.7.6-.4,0-.5-.2-.7-.2.3,0,.6,0,.7-.1-.9.1-2.6,0-2.9.4-1.1-.2.6-.3-.9-.3h.2c-3-.7-4.9.8-8.3,0,.2,0,.4,0,.4.1-3.8-.3-7.9.3-11.7-.2-1.1-.1-1.2.1-1.9.3l-.2-.3-1.1.3c-1.6.3-2.8-.7-4.8-.3l.3.2c-.7,0-2.3.1-2.2-.1,0,0-.2.2-.5.1v-.2s-1.8.3-1.8.3c-1.4-.1.2-.6-1.8-.7-.7,0-2.1.5-1.9.6.3,0,.8,0,.8.3H.2c-.1.5-.7,1,1,1.3l1.2-.3.4.2h-1c.6.2.9,0,1.3,0,0,.1.3.2.5.2l1.2-.4c.1.2-.5.4.3.5.5-.2-.5-.4.4-.5.6.2.4.4,1.1.2,0,.1,0,.2-.3.2.6-.1,1.6,0,1.9-.3.6.3,2,0,1.9.4.2-.1,1-.3,1.6-.4-1,.5,2,0,1.8.6.7-.5,2.6-.2,3.9-.5,0,0-.2.1-.3,0,.7,0,.9.2,1.4.3,0-.4,1.2-.5,1.8-.7.9.4-.5.5-.3.8,0-.3,1.5-.3,1.2-.6.7.2.6.1.9.4.1-.5.6,0,1.2-.4,1,.2.3.5,1.3.3.5.2-.4.3-.4.3ZM49.7,2.4h0c-.2,0-.4,0-.5,0,.1,0,.3,0,.5,0ZM51.9,2.4c-.3,0-.6,0-.9,0,0,0,0-.2.2-.2-.1,0,.4.1.7.2ZM47.3.4c.3,0,.5,0,.5,0-.2,0-.4,0-.6,0,0,0,0,0,0,0,0,0,0-.1.1-.1Z"/><path class="cls-1" d="M46.7.8s0,0-.1,0c0,0,.1,0,.2,0,0,0,0,0,.1,0,0,0-.1,0-.2,0Z"/><path class="cls-1" d="M242.6,1.2h0s0,0,0,0c0,0,0,0,0,0Z"/><polygon class="cls-1" points="81.7 2.9 81.7 2.8 81.5 2.9 81.7 2.9"/><path class="cls-1" d="M254.5,2.2s0,0,.2,0c0,0,0,0-.2,0Z"/><path class="cls-1" d="M259.6,2.2h.7c-.3,0-.5,0-.7,0Z"/><path class="cls-1" d="M263.6,2.4s0,0,0-.1c0,0,0,0,0,0h0Z"/><path class="cls-1" d="M200.7,2.7c0,0-.1,0-.2,0-.4,0-.1,0,.2,0Z"/><path class="cls-1" d="M219.4,2c-.2,0-.4.1-.6.1.3,0,.6,0,.6-.1Z"/><path class="cls-1" d="M179.8,3s0,0,0,0c0,0,0,0-.1,0h.1Z"/><path class="cls-1" d="M217.9,2.2c.3,0,.6,0,.9,0-.3,0-.6,0-.9,0Z"/><path class="cls-1" d="M280.7,2.5h.2s0,0,0,0h-.2Z"/><path class="cls-1" d="M280.9,2.5h.2c0,0-.2,0-.2,0Z"/><path class="cls-1" d="M281.6,2.4h-.4c.2,0,.3,0,.4,0Z"/><path class="cls-1" d="M275.5,2.4h0c0,0,0,0,0,0Z"/><path class="cls-1" d="M273.9,2.4c.4,0,1,.2,1.5.2h0c-.2,0-1.2-.3-1.5-.2Z"/><path class="cls-1" d="M267.2,1.1h1.3c-.2,0-.5-.2,0-.2-1.7-.3.3.2-1.4.2Z"/><path class="cls-1" d="M263.1,1c.7,0,0-.2,0-.2-.5,0-.6.1,0,.2Z"/><path class="cls-1" d="M233.2,1v-.3c-.5,0,0,0,0,.3Z"/><polygon class="cls-1" points="227.5 2.3 228.1 2.5 228.3 2.2 227.5 2.3"/><polygon class="cls-1" points="224.2 .5 224.4 .4 223.5 .5 224.2 .5"/><path class="cls-1" d="M174,.6l.2.3c.4,0,.5-.4-.2-.3Z"/><path class="cls-1" d="M152.4.9c-.2-.2-.8-.3-1.2-.1.5,0,1,.1,1.2.1Z"/><polygon class="cls-1" points="87.5 .4 87.9 .3 87.1 .4 87.5 .4"/></g></svg>