<?xml version="1.0" encoding="UTF-8"?><svg id="Layer_2" xmlns="http://www.w3.org/2000/svg" viewBox="0 0 318.9 9.7"><defs><style>.cls-1{fill:#ff20ff;stroke-width:0px;}</style></defs><g id="Layer_1-2"><path class="cls-1" d="M318.9,6.8c.2-.3,0-.8-.4-.7l-.3,1,.7-.3Z"/><path class="cls-1" d="M315.8,5c-.5.5-1.2,1.3-.8,2.2.5-1,.7-.6,1.2-1.7.5-.1.8.3.7.7.2-.3.7.2,1-.4-.6-.8-1.4-.8-2.2-.2-.2-.2,0-.5,0-.7Z"/><path class="cls-1" d="M270.5,3.5h.3c0,0-.2,0-.3,0Z"/><path class="cls-1" d="M242.5,2.9c.2,0,.3-.1.3-.2-.2,0-.4.1-.3.2Z"/><path class="cls-1" d="M237.7,1.8c.1,0,.2,0,.3,0-.1,0-.2-.1-.3,0Z"/><path class="cls-1" d="M270.5,3.5l-.7-.3c0,.3.4.2.7.3Z"/><path class="cls-1" d="M309.5,7.4c.2,0,.3-.1.4-.3-.1,0-.3,0-.4.1,0,0,0,.1,0,.2Z"/><path class="cls-1" d="M282.9,2.7h.2c0-.1.1-.3.2-.4l-.4.4Z"/><path class="cls-1" d="M292.4,2.5c-.2,0-.3.8-.4,1.2.1-.3.3-.5.5-.6,0-.2,0-.4,0-.6Z"/><path class="cls-1" d="M307.4,4h.3c0,0-.2,0-.3,0Z"/><path class="cls-1" d="M276.1,2.5c0-.1,0-.2,0-.3,0,.1,0,.2,0,.3Z"/><path class="cls-1" d="M11,8.8c0,0,0,0,0-.2,0,0,0,.1,0,.2Z"/><path class="cls-1" d="M0,4.6h.2c0-.2,0-.4,0-.5l-.2.5Z"/><path class="cls-1" d="M229,.7s0,0,0,0c.2,0,0,0,0,0Z"/><path class="cls-1" d="M148.6,1.4c.9.8-1.5,1-.1,1.8-.1-.3,1.2-1.3.1-1.8Z"/><path class="cls-1" d="M309.3,7.3c-.1,0-.3,0-.4,0,.2,0,.3,0,.4,0Z"/><path class="cls-1" d="M148.5,3.2h0s.1,0,.1,0c0,0,0,0-.1,0Z"/><path class="cls-1" d="M208.8,1.2c0,.1.1.3.2.4,0,0,0-.2-.2-.4Z"/><path class="cls-1" d="M223.9,2.4h-.4c.1,0,.3,0,.4,0Z"/><path class="cls-1" d="M201,2.4c-.2,0-.3-.2-.5,0,0,0,0,0,0,.1,0-.1.2-.2.5,0Z"/><path class="cls-1" d="M192.9,2.4c0,0,0,.1.1.2,0,0,.2,0,.3,0h-.4Z"/><path class="cls-1" d="M35.7,8.4c-.2-.2-.3-.5-.4-.8.1.6-1.1.8.4.8Z"/><path class="cls-1" d="M309.5,6.9c0,.2-.1.3-.2.4,0,0,.2,0,.3,0,0-.1,0-.2,0-.3Z"/><path class="cls-1" d="M200.7,9.1h-1.3c.4,0,.8,0,1.3,0Z"/><path class="cls-1" d="M94,8.3h-.3c.1.1.2,0,.3,0Z"/><path class="cls-1" d="M195.6,9.1c-.2-.3-.5-.5-.7-.6,0,0-.1.1-.1.2l.9.4Z"/><path class="cls-1" d="M35.3,7.6s0,0,0,0c0,0,0,0,0,0Z"/><path class="cls-1" d="M26.8,9.6c1.2,0,.6-1.1.8-1.7,1.5-.3.7.8,1.2,1.4.9-.3,1.6-1.3,2.3-1.3,0,.2.2.2,0,.5,1-.9,2.9,0,4-1.1,0,0,.1.2.1.3-.2-.6-.2-1.1-.2-1.5.6,0,1-.7,1.2,0-.3,0-.4.3-.5.5l.6-.3c.5,1-.8.4-.8,1.1,1.1-.3,2.4-1.2,3.3-.9.2,1-2,.3-.9,1.2l-1.3-.4c1,1.6-.8-.1.1,1.6,1.8.3,2-.5,3.7-.2.4-.6-.1-.8.3-1.4,2.5-1,2,2.6,3.8,1.2.5-.7.7-2,2-1.3l-.4,1.2c1.7.1,1-1.7,2.8-.9-.3.5-1.3.4-1.1.5,1.2.9.8-.7,1.7-.7l.2,1c1.8-.2,3.8-.9,5.8-1.1-.1.3-.5.6,0,.9,2.5-.5,5.4.1,7.8.7l.9-.9c.2,0,.4.4.2.6,1,.3,0-.6.5-.9.5,0,.7.5.4.8,1.7-.7,4.8-1.6,6.5-.7l-.3.3c1.4.4,1.6-1.8,2.8-1l-.2.2c3,.4,6.3-.4,8.6.9.4-1.3,3,.6,3.1-1.2,1.7.9,1.2,1.2,3.6,1.8.6,0,1-1.1,1.7-1.3v.9s1.1-1,1.1-1l.6,1.1.7-.2c-.3,0-.6-.4-.6-.7,1.2-.4,2.8.6,2.9,1.1l2.8-.8c0,.4-.5.5-.9.7,1.5-.9.3,1,1.6.1-.2-.2,0-.6.1-.7.7.6,2.2.6,3.3.3l-.2.6c2,.2,4.3-.3,6.6-.3-.8-.3-.6-1.4,0-1.5l.3,1c.4-.6-.7-.4.2-1.1.9.1.6,1.1,0,1.4l1-.3c0,.3-.2.4-.2.8.4-.6,1.8,1,2.4,0v.3c2.3,0,3.4-.3,5.2-.4,0-.8.8-.7,1.3-1.3,1.4.3,2.9.9,4.5.9,1.2-.4.3-.7.9-1.2,0,.8,1.7.7.9,1.2,2-.1,2.5-.2,5-.8-.3-.3-.6-.5-.4-.7.5-.1,1,.3,1,.7h-.1c2.8-1.1,6.5,2.3,8.7.7h-.1c0,0,2.3-.8,2.3-.8,1.1.1-.6.6.1,1.1,2.5-1.3,4,.2,6-.7,1.6,2.3,5.7-.2,7.8,1.3v-.5c.4-.5.5.3,1,.4,0-.4-.6-.5-.3-.8,4.7-.6,9.7.8,14.6,1.3,1.8.1,1-2.8,3.2-1.5l-.6,1c3.6-1.2,7.3,0,10.8-1-.2.2-.2.5-.6.5.7.7,2.7,0,2.7-.6.5,0,.1.5.5.8.7.4,1.9-.9,2.3-.2,0,.1-.2.2-.3.3.5-.3,2.2,0,1.8-.7,1.3.4,2.5-.4,3.6.1.7-.9,2.2.4,2.5-.9,0,1.4,2.3,1.1,3.1.5-.3.4.7.4.4,1,.9,0,1.8-.3,1.6-1,1.7,1.6,3.5-1.3,4.5.8,2.8-.7,5.4-1.2,7.9-1.5,0,1.4-2.8.1-2.7,1.6,2.4-.6,3.8-1.7,6.2-1.4.6.2-.3.6-.6.8,2.4-.6,4.6.1,6.8-.6,0,.1-.2.3-.5.4.4,0,1,.2.9-.4l-.4.2c-.7-.9,1.7-1.9,1.7-2.3-.7,1.8,2.1.4,1,2.7.3-.1.6-.4.6-.8.4.1.5.4.1.8,1.5-.3,1-1,2.3-1,0,.3-.3.4-.4.8.7-.6,1.4-1.2,2.5-.9,0,.2,0,.4-.3.4,2,0,3.4-1.5,5.5-1-.6,1.3.7.4.9,1.5l1.2-.3-.5-.5c1,0,1.9-.8,2.8-.4l-.8.5,1.9-.2-1.1-.4c1-.6-.1-1.4,1.3-1.1-.3.1,1,0,1.6.7,0,0,0,0,0,0,.5-.4,1-.7,1.8-.5.2.4-.2,1.2,0,1.5.5-.9,2.4-.3,3-1.3-.2.2-.2.8-.2.9l.4-.8c.5.2.5.4.5.8,1.4.1-.5-1.4,1.2-.8-.1,0,0,.2-.3.3,1.7.3,3.3-.5,4.8-.1.5,1.1-1.4.3-.8,1.2,2.3-.2,4.7-1.4,6.8-1.1h-.4c.3-1.7,1.6.7,2.7,0-.3.1-.4.9-.3.7,1.5.3,3.1-.4,5.3-.9l-.3.4c.9.4,2.3.2,3.3.4.3-.4.8-.3.5-.9,2.9,2.3,5.6-1.2,8.2.7-.3,0-.7.4-.5.4l2.2-.4c-.2-.7-.3-.4-.8-1,.3-.4.9-.7,1.5-.7-1,.5,0,1.1.4,1.5,0-.2,0-.4,0-.7,1.2,1.2.2-1.4,1.8-.6v.4c.5-.2,1.1-.7,1.7-.6.3.8-.6.4-.7,1,.9,0,1.8-1.5,2.6-.7-.4.2-.9.2-1.3.4.9.9,1,.7,1.6.9h0s1.5.4,1.5.4l-.4-.3c1.1-2.1,2.3-.4,3.8-1.8-1.5,1.3-.2.8-.4,1.7.4.3,1,.5.8.8.7-.7,1.2.6,2.2-.5,0,.3.8,0,.6.8.9-.2-.2-.5-.1-.9,1.4-1,3.4,1.2,5.4-.2,1.8-.6,2.1-1.6,3.7-2,.6.5-.5,1.1-.5,1.1.9.4,1.6.4,2.4,0-.2.3,0,.5.3.8.7,0,.5-1.1,1.3-.6-.2.3-.3.8-.7,1.2.8-.3,1.6-.8,2.4-1.1.2.5-.5.8-.8,1.1.9-.2,2.4-.5,2.7-1.3l-.6-.3c.3,0,.2.7,0,.8-.8.6-1.1-.3-1.2-.6l.6-.2c-.6-1.7-2.4.3-3.5.2l.5-1.2-1.2,1c-.3-.3-.4-1,.1-1.2-.8-.6-.8.4-1.5-.2,0-.1,0-.2,0-.2l-.8.4c.2-.3-.1-.9.4-.7-1.5-.7-2.4.9-3,0h.1c-2.1.3-.2.8-1.7,1.9l-1-2.3-.2.9c-.2,0-.6-.1-.6-.5-.8.6.1.4-.3,1-1-.8-2.8.4-3.1-1.1-.4.7,1,.5-.1,1-.3-1.6-1.3.3-2.2-.5.3-.8,1.2-.4.2-1.1-.6,1.4-1.8-.3-2.6,0,0,1.1-1.7.5-3,.8,0-.4-2.5-.6-3.7-1v-.2c-.2,1.1-1.5.9-2.4,1.1,0-.7.2-.9.7-1.2h-.9c-.2.4-.5.5-1,.7l.2-.8c-1.2,0-2.3,1-3.8.4,0,.8,1.2,2.1-.4,2.7,0-.4-.1-1.1.3-1.3-.1,0-.5.3-.8.2l.6-.7c-.7-.3-.4.6-.9.5,0-.6-.4-.4-.3-.9.1,0,.5.2.7,0-.6-.1-1.4-.5-1.6-.9,0,.3,0,.8-.4.9-1.2,0-.4-.7-1.1-1-.3.4-1,0-1,.9-.3,0-.4-.4-.5-.7-.6.4-2.8.1-2.1,1.1h.2c0,0,0,0,0,.1h0,0c-2,.9-4.1-.5-6-.1v-.3c-1.2.3-2.6.2-3.4.8-.3,0-.8-.5-.7-.9-.9.2-1,.6-2.3,0,.9-.5-.3-.5.9-.4-1.2-.3-1.4-.7-2.7,0,.4-.8-.9-1-1.4-.7l.8.5c-.6.1-1.2,0-1.7,0l.3-1c-2.4-1.2-4.3,2.1-6.1,0-.6.7,1.3.5.7,1.3-1.1-.1-2.2-1.6-2.6-1.6-1.5-.6-1.4,1.5-3,1.1.2.4.4,1.3-.8,1.6-1.1-.1-1.3-1.5-.7-1.8.3,0,.4,0,.4.2.4-.1.8-.3.4-.7v.4c-.7-.4-2.2-.3-1.8-.9-.8.3-.4.6.3.8-1.4-.5-2.2,0-3.6-.4.2.2.4.6.2.6-2.1-.4-.9.7-2.4.8-.8-.5.3-1.3-1.1-.8-.9-.4-.2-.9.2-1.2-1.3.7-2.5-.5-3.2-.6l.7-.3c-.4.2-.8.2-1.1.2l.4.7c-.4-.1-.7-.1-.7-.4-.4.5.3,1.2-.5,1.8-.5-.4-1.6.4-1.8-.6,1.7.3-.2-.9,1.3-1.1-.3.1-.6.1-1,0,0-.1,0-.2.2-.2-1.6-.8-.7,1.1-2.4,1,.2-.5-.4-1-.7-.9.7,0,.3.9-.3,1.3-1.1-.4-1.2.3-1.7.3l.6.2c-.2.5-.8.5-1.5.6,0-.4.7-.3.4-.5-.8.9-1.9-1-3.1-.3-.5-.4,0-1-.5-1.2-1.3.7-1.4-.7-2.8-.2.4.7.5.5-.5,1.2l2.3-.5-1.5,1c.7,0,1.4-.4,1.8-.3-.7.6-.6.4-.3,1-.9-1.1-1.9.6-2.9,0v-1.8c-1.6-.8-2.9.9-5,.5l.7.3c-.3.7-1.3,0-2,.4,0-.6-.4-.8-.7-1.2,0,.4-1.5,0-1.7,1.1l-.9-.8c-1.7-.3-1.9,1.7-3.6,1.5.5-.6-.3-1.1.8-1.5-.5,0-1-.1-1,.3-.3-.4-1.5.8-2,.2-.2.3-.3.9-.9.8,0-.1,0-.3,0-.3,0,.3-1,.4-.4,1.1-1.7-1.8-4.7.1-6.2-1.5-1.2.2-2.6.4-3.7.4,0-.2,0-.3.2-.2-1.5-.6-.9,1.7-2.6,1.1-.9-1,.9-.5.4-.9-.2-1.9-2,.3-3.2-.9h.3c-.9-.8-2.1.6-3.6.5,0,0,0-.2,0-.3-1,1-2.8,1.3-4.2,1.6.4-.8.6-.4.4-1.2-.6.1.2,1.2-1,1.5-.4-.4-1.3-.8-1.4-1.6h1.2c-.6-1.1-1.5,0-2.1-.2v-.5c-1.7.2-1.7,1.3-3.6,1.2l.2.4c-1,1.2-.9-.7-1.9.2l-.3-1.2c-.7.3-2.4,1.1-3.6,1.4.7-.9,2.1-1.3,3-1.8-.7,0-2.3,0-2.7.7.3-.1.6-.4.9-.2-.8.9-1.9,1.4-3.3,1.4.2-2.3-3.5-.6-4.5-2.4-2.4.8-4.8-.4-7.6-.2,1,1.8-.8,0-.6,1.9-.7.1-.9,0-1,0l-2-1.1c-.5-.5.6-.4.6-.8-1.4-.1-.6-.8-1.5-1.3.2.7-.5.9-1.3.7l1.1.8c-2,1-1.7-1.5-3.7-.6l.6-.6c-1,.3-3.8,0-4.8,1.5-.2-.2-.4-.7,0-.8-2.5-.2-5.5,1.6-7.4.7l.2-.4c-.5.1-.8.8-1.4.4,0-.2.2-.4,0-.5-.2.2-1.2.8-1.8.5l.5-.5c-2.4-.6-3.7,1.2-5.7,1.5,0-1.3-1.9-1.7-2.8-2v-.2c-2.8-.2-4.7,1.1-7.3,1.6-1.6-1.4-5.5-.6-8.1-1.4.4.2,0,1-.5,1.2-.6-.3-1.7.9-1.6-.3h.2c-.5-1.2-1.7-.8-2.7-.9l-.2,1.6c-2.6-2.3-6.7.8-8.1-1.2-.6.4-1.4.4-2,.8v-.8c-1.7-.2-2.5-.3-4.6-.1l.4-.6c-1.2,0-1.5,2.4-2.6,2.5l-.3-1.3c-2.1,0-4.2-1.1-6.2,0,0-.2,0-.6.4-.6-1,0-3.8-.9-3.4.9,0-1.1-2.1-.1-3.3.4l.2-.8c-.9,1.1-1,1.4-2.3,1.7-.3-.1-.3-.7.1-.5-1-.4-.8.8-2.1.3l.5-.5c-1.1,0-1,.2-1.6.8-.7.3-2-.2-2.2-1-.1.5-.7,1.1-1.4.9,0-.3.1-.5.3-.5-1.8-.6-2.7,1-3.9.2,0-.3-.1-.4-.2-.5,1.4,0,2.6,0,2.5.1,0-.8-1.2-.9-.2-2-.9.6-2.5,1.8-3.6,1.5,0,0-.1-.1-.1-.3h.1c-.3-.2-.5,0-.7,0-.4-.1-.6-.2-.9-.2-.1-.6-1.3-.3-1.9-.4,0,.8-.7.7,0,1.4,0,0,.1-.1.5-.1,0,0,.2,0,.2,0,0,0,0,0,0,0,.4,0,.9,0,1.4,0-.5.4-.9.8-1.6.3-.3.5-.6,1.1-.8,1.4-.8-1.2-2.3-1.8-2.5-2.5-1.8.5-4.1.3-5.2,1.9-.5.2-.6-.5-.8-.7.3-.2.6-.1.8-.4-1,.4-3,.2-3.2,1.3-1.3-.5.7-1-1-.8l.2-.3c-3.4-1.8-5.5,2.8-9.3.6.3.1.4.2.4.4-4.3-1-8.8.9-13.1-.6-1.2-.3-1.3.4-2.1.9l-.3-.9-1.3,1c-1.8.8-3.1-2.2-5.3-.8l.3.6c-.8-.1-2.6.4-2.4-.3,0,.1-.3.6-.6.3v-.5s-2,.8-2,.8c-1.5-.3.2-1.9-2-2C1.3,2.1-.2,3.3,0,3.6c.3,0,.9.3.9.8l-.8.2c-.1,1.4-.7,2.8,1.2,3.8l1.3-.9.4.7h-1.1c.6.7,1,.1,1.5-.3.1.4.3.6.5.7l1.3-1.3c.2.5-.6,1.1.3,1.4.6-.6-.6-1.2.4-1.6.6.6.4,1.2,1.2.6.1.4,0,.6-.3.7.7-.4,1.7-.2,2.1-.9.7.8,2.2-.2,2.1,1.1.2-.3,1.2-1,1.8-1.1-1.1,1.6,2.2,0,2,1.8.8-1.4,2.9-.6,4.4-1.4,0,.1-.2.3-.4.3.8.1,1,.5,1.6.8.1-1.2,1.4-1.4,2-2.2,1,1.1-.6,1.4-.3,2.5,0-1,1.7-1,1.4-1.7.8.7.7.3,1,1.3.1-1.5.7-.2,1.3-1.2,1.1.7.3,1.4,1.5.9.6.4-.5,1-.5,1ZM55.5,7.1h0c-.2,0-.5,0-.6,0,.1,0,.3,0,.6,0ZM58,7.1c-.3,0-.7,0-1,0,0-.3,0-.6.2-.6-.1.2.4.4.8.6ZM52.9,1.2c.4-.1.5,0,.6.2-.2,0-.4,0-.7.1,0,0,0,0,0,.1,0-.2,0-.3.2-.4Z"/><path class="cls-1" d="M52.2,2.3c0,0,0,0-.2,0,0,0,.2.1.2.2,0,0,0-.2.1-.3,0,0-.1,0-.2,0Z"/><path class="cls-1" d="M270.9,3.6h0s0,0,.1.1c0,0,0,0,0-.1Z"/><polygon class="cls-1" points="91.3 8.7 91.3 8.5 91.1 8.7 91.3 8.7"/><path class="cls-1" d="M284.2,6.5c0,0,0,.2.2.2,0,0,0-.1-.2-.2Z"/><path class="cls-1" d="M289.9,6.7l.8.3c-.4-.2-.6-.3-.8-.3Z"/><path class="cls-1" d="M294.3,7.1c0-.1,0-.3,0-.4,0,0,0,0,0,0v.4Z"/><path class="cls-1" d="M224.2,8.1c0,0-.1,0-.2,0-.4.2-.1,0,.2,0Z"/><path class="cls-1" d="M245,6.1c-.2.2-.4.3-.7.4.4,0,.7,0,.7-.4Z"/><path class="cls-1" d="M200.8,9.1s0,0,0,0c0,0,0,0-.1,0h.1Z"/><path class="cls-1" d="M243.4,6.5c.4.2.7.1,1,0-.3,0-.7-.1-1,0Z"/><path class="cls-1" d="M313.5,7.5h.2s0,0,0-.1h-.2Z"/><path class="cls-1" d="M313.7,7.4h.2c-.1,0-.2,0-.2,0Z"/><path class="cls-1" d="M314.4,7.1l-.5.2c.2,0,.4,0,.5-.2Z"/><path class="cls-1" d="M307.6,7.1v.3c0,0,0-.2,0-.3Z"/><path class="cls-1" d="M305.8,7.2c.4,0,1.1.7,1.7.5v-.2c-.2.5-1.3-.7-1.7-.2Z"/><path class="cls-1" d="M298.4,3.4l1.5.2c-.3-.3-.6-.8,0-.8-1.9-1,.4.7-1.6.6Z"/><path class="cls-1" d="M293.8,2.9c.8-.2,0-.5,0-.7-.5.3-.6.4,0,.7Z"/><path class="cls-1" d="M260.5,2.9v-.8c-.5.1,0,.3,0,.8Z"/><polygon class="cls-1" points="254.1 6.9 254.7 7.4 255 6.7 254.1 6.9"/><polygon class="cls-1" points="250.3 1.4 250.6 1.3 249.6 1.6 250.3 1.4"/><path class="cls-1" d="M194.3,1.7l.2.9c.4-.2.5-1.2-.2-.9Z"/><path class="cls-1" d="M170.2,2.7c-.3-.5-.9-.8-1.4-.3.5,0,1.1.4,1.4.3Z"/><polygon class="cls-1" points="97.7 1.1 98.2 .8 97.3 1.1 97.7 1.1"/></g></svg>